# xmcd CD database file
#
# Track frame offsets:
#	150
#	13514
#	29701
#	51661
#	67760
#	82343
#	107858
#	122416
#	143783
#	158868
#	169491
#	188062
#
# Disc length: 2721 seconds
#
# Revision: 4
# Processed by: cddbd v1.5.2PL0 Copyright (c) Steve Scherf et al.
# Submitted via: CDex 1.51
#
DISCID=aa0a9f0c
DTITLE=Debbie Davies - Key to Love
DYEAR=2003
DGENRE=Blues
TTITLE0=Light The Fuse
TTITLE1=Chicago Line (w/ James Cotton)
TTITLE2=Hard Road (w/ Mick Taylor)
TTITLE3=Room To Move (w/ James Cotton)
TTITLE4=Takin' It All To Vegas
TTITLE5=Dream About The Blues
TTITLE6=Key To Love
TTITLE7=I Should Know Better
TTITLE8=I'm A Sucker For Love
TTITLE9=Steppin' Out
TTITLE10=Nature's Disappearing (w/ Peter Green)
TTITLE11=I Just Came To Play
EXTD=YEAR: 2003
EXTT0=
EXTT1=
EXTT2=
EXTT3=
EXTT4=
EXTT5=
EXTT6=
EXTT7=
EXTT8=
EXTT9=
EXTT10=
EXTT11=
PLAYORDER=
